<svg xmlns="http://www.w3.org/2000/svg" viewBox="0 0 25.3 17.92"><defs><style>.cls-1{fill:#4d443c;}.cls-2{fill:#fb5845;}.cls-2,.cls-3,.cls-4{fill-rule:evenodd;}.cls-3{fill:#78c17c;}.cls-4{fill:#f9b916;}</style></defs><title>7_1</title><g id="Layer_2" data-name="Layer 2"><g id="Layer_1-2" data-name="Layer 1"><path class="cls-1" d="M17.55,17.92a.29.29,0,0,1,0-.57h4.74a.29.29,0,0,1,0,.57Z"/><path class="cls-1" d="M19.82,16.71a.29.29,0,0,1,0-.57h1.51a.29.29,0,0,1,0,.57Z"/><path class="cls-1" d="M18.88,17.39a.29.29,0,1,1,0-.57h4.66a.29.29,0,1,1,0,.57Z"/><path class="cls-2" d="M10.44.34A1.82,1.82,0,1,1,8.63,2.16,1.82,1.82,0,0,1,10.44.34"/><path class="cls-1" d="M11.52,1.07a1.53,1.53,0,0,0-2.16,0h0a1.53,1.53,0,0,0,0,2.16h0a1.53,1.53,0,0,0,2.16-2.16m-1.08-1a2.1,2.1,0,0,1,1.49,3.59h0a2.1,2.1,0,0,1-3,0H9a2.1,2.1,0,0,1,0-3H9A2.1,2.1,0,0,1,10.44.06Z"/><path class="cls-3" d="M13.13,1.26C14.79,0,15.65.07,16.12.88,16.5,1.51,17,5,17.36,6.2c-2.31-.43-4.56-.92-5.85-3.1-.67-1.13-.58-2,1.62-1.84"/><path class="cls-1" d="M15.09.58a3.82,3.82,0,0,0-1.78.91.29.29,0,0,1-.2.06c-1-.07-1.45.06-1.62.3h0c-.15.23,0,.63.27,1.1A5.05,5.05,0,0,0,14.17,5,13.21,13.21,0,0,0,17,5.84c-.1-.43-.2-1-.32-1.55A20.09,20.09,0,0,0,15.88,1a.79.79,0,0,0-.78-.45M13,1a4.18,4.18,0,0,1,2-1,1.31,1.31,0,0,1,1.32.73,18.87,18.87,0,0,1,.85,3.45c.16.79.3,1.53.41,1.95a.29.29,0,0,1-.33.35,15.31,15.31,0,0,1-3.36-.91,5.6,5.6,0,0,1-2.67-2.32c-.39-.65-.54-1.25-.26-1.7v0C11.29,1.13,11.91.91,13,1Z"/><path class="cls-1" d="M12.87,1.37a.29.29,0,0,1,.53-.22l.12.3a3.74,3.74,0,0,0,.41.85,2.36,2.36,0,0,0,.52.4l.48.32a.29.29,0,0,1-.32.47l-.47-.31a2.63,2.63,0,0,1-.65-.51,3.87,3.87,0,0,1-.49-1Z"/><path class="cls-2" d="M22,3A1.82,1.82,0,1,1,20.18,4.8,1.82,1.82,0,0,1,22,3"/><path class="cls-1" d="M23.07,3.72a1.53,1.53,0,0,0-2.16,0h0a1.53,1.53,0,0,0,0,2.16h0a1.53,1.53,0,0,0,2.16-2.16M22,2.7a2.1,2.1,0,0,1,1.49,3.59h0a2.1,2.1,0,0,1-3,0h0a2.1,2.1,0,0,1,0-3h0A2.09,2.09,0,0,1,22,2.7Z"/><path class="cls-2" d="M2.21,4A1.87,1.87,0,0,1,4.14,5.81,1.87,1.87,0,0,1,2.21,7.63,1.88,1.88,0,0,1,.29,5.81,1.87,1.87,0,0,1,2.21,4"/><path class="cls-1" d="M3.38,4.74a1.7,1.7,0,0,0-1.17-.45A1.7,1.7,0,0,0,1,4.74,1.46,1.46,0,0,0,1,6.89a1.7,1.7,0,0,0,1.17.45,1.7,1.7,0,0,0,1.17-.45,1.46,1.46,0,0,0,0-2.15m-1.17-1a2.27,2.27,0,0,1,1.56.61,2,2,0,0,1,0,3,2.27,2.27,0,0,1-1.56.61A2.27,2.27,0,0,1,.66,7.31a2,2,0,0,1,0-3A2.27,2.27,0,0,1,2.21,3.71Z"/><path class="cls-2" d="M10.37,3.08A2.62,2.62,0,1,1,7.75,5.7a2.62,2.62,0,0,1,2.62-2.62"/><path class="cls-1" d="M12,4.05A2.33,2.33,0,1,0,12.7,5.7,2.33,2.33,0,0,0,12,4.05M10.37,2.79a2.91,2.91,0,1,1-2.05.85A2.9,2.9,0,0,1,10.37,2.79Z"/><path class="cls-3" d="M3.59,8.42C2.55,6.09,1.46,3.35,2.37.84A13,13,0,0,0,4.79,2.32c1.37.62,3.35.93,4.4,1.91,1.43,1.33.85,3.32,0,5.41Z"/><path class="cls-1" d="M2.53,4.64A19.55,19.55,0,0,0,3.79,8.18L9,9.31a9.4,9.4,0,0,0,.78-2.69A2.51,2.51,0,0,0,9,4.43,7.57,7.57,0,0,0,6.28,3.16a15.52,15.52,0,0,1-1.61-.59,11.27,11.27,0,0,1-1.19-.63c-.31-.19-.63-.4-1-.64a6.79,6.79,0,0,0,0,3.33m.79,3.88A20.51,20.51,0,0,1,2,4.76a7.08,7.08,0,0,1,.13-4A.28.28,0,0,1,2.46.58l.07,0c.45.34.86.61,1.24.85a10.74,10.74,0,0,0,1.13.6,15.39,15.39,0,0,0,1.55.56A7.94,7.94,0,0,1,9.39,4a3,3,0,0,1,.94,2.65,10.5,10.5,0,0,1-.92,3.08.29.29,0,0,1-.32.17L3.53,8.7A.28.28,0,0,1,3.32,8.52Z"/><path class="cls-1" d="M8.54,9.34A.29.29,0,0,1,8,9.55l-.13-.33A8.85,8.85,0,0,0,5,4.9a.29.29,0,0,1,.39-.42A9.26,9.26,0,0,1,8.4,9Z"/><path class="cls-3" d="M12.44,5.72a1.85,1.85,0,0,1,.63.11s0-.07,0-.11a1.86,1.86,0,0,1,2.39-1.78c0-.06,0-.12,0-.18A1.86,1.86,0,1,1,19.15,4,1.86,1.86,0,0,1,21.8,5.32a1.86,1.86,0,1,1,1,3.43,1.88,1.88,0,0,1-.38,0c-.11,2-2,3.52-4.4,3.52A4.21,4.21,0,0,1,13.65,9a1.86,1.86,0,1,1-1.21-3.27"/><path class="cls-1" d="M12.71,6l-.27,0a1.57,1.57,0,0,0-1.13,2.67h0a1.57,1.57,0,0,0,2.13.09.29.29,0,0,1,.48.17,3.26,3.26,0,0,0,1.34,2.13A4.77,4.77,0,0,0,20.88,11,3.17,3.17,0,0,0,22.14,8.7v0a.28.28,0,0,1,.34-.22l.16,0h.16a1.57,1.57,0,0,0,1.13-2.67h0a1.57,1.57,0,0,0-2-.22l-.11,0a.29.29,0,0,1-.33-.23,1.58,1.58,0,0,0-1.91-1.26,1.55,1.55,0,0,0-.32.11.29.29,0,0,1-.43-.28s0-.07,0-.09,0-.05,0-.09a1.58,1.58,0,0,0-2.67-1.13h0a1.57,1.57,0,0,0-.46,1.11v.14a.29.29,0,0,1-.36.31l-.22,0-.23,0a1.57,1.57,0,0,0-1.57,1.57s0,.06,0,.09a.29.29,0,0,1,0,.11.28.28,0,0,1-.36.17L12.71,6m-.27-.59.35,0a2.15,2.15,0,0,1,2.13-1.89h.24a2.14,2.14,0,0,1,.62-1.35l0,0a2.14,2.14,0,0,1,3,0h0a2.14,2.14,0,0,1,.62,1.33h0A2.15,2.15,0,0,1,22,4.91l.21-.07a2.14,2.14,0,0,1,2.12.54l0,0a2.14,2.14,0,0,1,0,3h0A2.14,2.14,0,0,1,22.8,9h-.12a3.79,3.79,0,0,1-1.44,2.4,5.33,5.33,0,0,1-6.31.1,3.92,3.92,0,0,1-1.48-2.07l-.28.12a2.15,2.15,0,0,1-2.26-.5l0,0a2.15,2.15,0,0,1,1.53-3.65Z"/><path class="cls-2" d="M15.57,5.29A1.82,1.82,0,1,1,13.75,7.1a1.82,1.82,0,0,1,1.82-1.82"/><path class="cls-1" d="M16.65,6a1.53,1.53,0,0,0-2.18,2.15h0A1.53,1.53,0,0,0,16.65,6ZM15.57,5a2.1,2.1,0,0,1,1.49,3.59h0a2.1,2.1,0,0,1-3,0l0,0A2.1,2.1,0,0,1,15.57,5Z"/><path class="cls-4" d="M.58,7.81H25c0,4.34-4.25,9.82-8.69,9.82H9.27C4.83,17.64.58,12.15.58,7.81"/><path class="cls-1" d="M12.3,8.1H.87c.18,4.16,4.2,9.25,8.39,9.25h7.06a7.89,7.89,0,0,0,5.62-3A10.71,10.71,0,0,0,24.72,8.1ZM.58,7.53H25a.29.29,0,0,1,.29.29,11.11,11.11,0,0,1-2.93,6.93,8.45,8.45,0,0,1-6,3.18H9.27c-4.58,0-9-5.64-9-10.11A.29.29,0,0,1,.58,7.53Z"/><path class="cls-3" d="M19.86,6.59c-1.65-1.26-2.51-1.19-3-.38-.37.64-.92,4.13-1.24,5.32,2.31-.43,4.56-.92,5.85-3.1.67-1.13.58-2-1.62-1.84"/><path class="cls-1" d="M17.95,5.34a4.18,4.18,0,0,1,2,1c1.15-.06,1.78.17,2,.58h0c.28.45.13,1-.26,1.7a5.6,5.6,0,0,1-2.67,2.32,15.3,15.3,0,0,1-3.36.91.28.28,0,0,1-.13,0,.29.29,0,0,1-.2-.35c.11-.42.26-1.16.41-1.95a18.89,18.89,0,0,1,.85-3.45,1.31,1.31,0,0,1,1.32-.73m1.74,1.48a3.82,3.82,0,0,0-1.78-.91.79.79,0,0,0-.78.45,20.1,20.1,0,0,0-.79,3.27c-.11.58-.22,1.12-.32,1.55a13.21,13.21,0,0,0,2.81-.79,5.05,5.05,0,0,0,2.41-2.09c.28-.47.41-.87.27-1.1s-.65-.38-1.63-.31A.28.28,0,0,1,19.68,6.82Z"/><path class="cls-1" d="M19.6,6.48a.29.29,0,1,1,.53.22L20,7a3.87,3.87,0,0,1-.49,1,2.61,2.61,0,0,1-.65.51l-.47.31a.29.29,0,0,1-.32-.47L18.54,8a2.38,2.38,0,0,0,.52-.4,3.75,3.75,0,0,0,.41-.85Z"/><path class="cls-1" d="M6.31,15a.29.29,0,1,1,.32-.47l.47.3.49.26a.29.29,0,0,1-.25.51l-.52-.28L6.31,15M2.43,9.52A.28.28,0,0,1,3,9.37a9.88,9.88,0,0,0,1,2.37,9.2,9.2,0,0,0,1.6,2,.28.28,0,1,1-.39.42A9.76,9.76,0,0,1,3.53,12,10.46,10.46,0,0,1,2.43,9.52Z"/></g></g></svg>