<svg width="11" height="15" viewBox="0 0 11 15" fill="none" xmlns="http://www.w3.org/2000/svg">
<path fill-rule="evenodd" clip-rule="evenodd" d="M5.61563 13.4375C8.1525 13.4375 10.0312 11.6625 10.0312 9.21873C10.0312 7.75811 9.34813 7.03811 8.3575 5.99498L8.34438 5.98061C7.44438 5.03249 6.3825 3.88623 6.06375 1.88248C5.59172 2.15976 5.18448 2.53482 4.86938 2.98248C4.3775 3.69748 4.1525 4.62811 4.73438 5.79186C5.11125 6.54498 5.22 7.50436 4.56125 8.16311C4.15063 8.57373 3.46 8.85061 2.71375 8.52936C2.24375 8.32686 1.86812 7.93248 1.565 7.41061C1.21063 7.85186 0.96875 8.49811 0.96875 9.21873C0.96875 11.6231 3.02375 13.4375 5.61563 13.4375ZM6.91563 1.01686C6.905 0.801235 6.73063 0.626235 6.52063 0.677485C5.06 1.03686 2.3925 3.20373 3.89562 6.21123C4.19187 6.80248 4.14062 7.25811 3.89813 7.49998C3.49813 7.89998 2.72687 7.92748 2.10125 6.36561C2.01937 6.16123 1.79 6.04748 1.59937 6.15686C0.6325 6.71186 0.03125 7.94436 0.03125 9.21873C0.03125 12.2369 2.6075 14.375 5.61563 14.375C8.62313 14.375 10.9688 12.2262 10.9688 9.21873C10.9688 7.38186 10.0525 6.41748 9.09 5.40498C8.08375 4.34623 6.91563 3.23248 6.91563 1.01686Z" fill="black"/>
</svg>
