<?xml version="1.0" encoding="UTF-8" standalone="no"?>
<svg
   sodipodi:docname="15 - Soup.svg"
   inkscape:version="1.1.1 (1:1.1+202109281949+c3084ef5ed)"
   id="svg831"
   version="1.1"
   viewBox="0 0 22.577778 22.577778"
   height="64pt"
   width="64pt"
   inkscape:export-filename="/media/taufikramadhan/Data/Tr Design Studio/Project Design/TR Creative Design/Icon Design/Project Hiring/Icon Icons/010 - Food/Send/4 - Filledline/14 - Fries French.png"
   inkscape:export-xdpi="576"
   inkscape:export-ydpi="576"
   xmlns:inkscape="http://www.inkscape.org/namespaces/inkscape"
   xmlns:sodipodi="http://sodipodi.sourceforge.net/DTD/sodipodi-0.dtd"
   xmlns="http://www.w3.org/2000/svg"
   xmlns:svg="http://www.w3.org/2000/svg"
   xmlns:rdf="http://www.w3.org/1999/02/22-rdf-syntax-ns#"
   xmlns:cc="http://creativecommons.org/ns#"
   xmlns:dc="http://purl.org/dc/elements/1.1/">
  <defs
     id="defs825">
    <pattern
       y="0"
       x="0"
       height="6"
       width="6"
       patternUnits="userSpaceOnUse"
       id="EMFhbasepattern" />
    <pattern
       y="0"
       x="0"
       height="6"
       width="6"
       patternUnits="userSpaceOnUse"
       id="EMFhbasepattern-9" />
    <pattern
       y="0"
       x="0"
       height="6"
       width="6"
       patternUnits="userSpaceOnUse"
       id="EMFhbasepattern-0" />
    <pattern
       y="0"
       x="0"
       height="6"
       width="6"
       patternUnits="userSpaceOnUse"
       id="EMFhbasepattern-7" />
    <pattern
       y="0"
       x="0"
       height="6"
       width="6"
       patternUnits="userSpaceOnUse"
       id="EMFhbasepattern-2" />
    <pattern
       y="0"
       x="0"
       height="6"
       width="6"
       patternUnits="userSpaceOnUse"
       id="EMFhbasepattern-98" />
    <pattern
       y="0"
       x="0"
       height="6"
       width="6"
       patternUnits="userSpaceOnUse"
       id="EMFhbasepattern-6" />
    <pattern
       y="0"
       x="0"
       height="6"
       width="6"
       patternUnits="userSpaceOnUse"
       id="EMFhbasepattern-01" />
    <pattern
       y="0"
       x="0"
       height="6"
       width="6"
       patternUnits="userSpaceOnUse"
       id="EMFhbasepattern-07" />
    <pattern
       y="0"
       x="0"
       height="6"
       width="6"
       patternUnits="userSpaceOnUse"
       id="EMFhbasepattern-8" />
    <pattern
       y="0"
       x="0"
       height="6"
       width="6"
       patternUnits="userSpaceOnUse"
       id="EMFhbasepattern-4" />
    <pattern
       y="0"
       x="0"
       height="6"
       width="6"
       patternUnits="userSpaceOnUse"
       id="EMFhbasepattern-40" />
    <pattern
       y="0"
       x="0"
       height="6"
       width="6"
       patternUnits="userSpaceOnUse"
       id="EMFhbasepattern-08" />
    <pattern
       y="0"
       x="0"
       height="6"
       width="6"
       patternUnits="userSpaceOnUse"
       id="EMFhbasepattern-04" />
    <pattern
       y="0"
       x="0"
       height="6"
       width="6"
       patternUnits="userSpaceOnUse"
       id="EMFhbasepattern-014" />
    <pattern
       y="0"
       x="0"
       height="6"
       width="6"
       patternUnits="userSpaceOnUse"
       id="EMFhbasepattern-27" />
    <pattern
       y="0"
       x="0"
       height="6"
       width="6"
       patternUnits="userSpaceOnUse"
       id="EMFhbasepattern-09" />
    <pattern
       y="0"
       x="0"
       height="6"
       width="6"
       patternUnits="userSpaceOnUse"
       id="EMFhbasepattern-5" />
    <pattern
       y="0"
       x="0"
       height="6"
       width="6"
       patternUnits="userSpaceOnUse"
       id="EMFhbasepattern-018" />
  </defs>
  <sodipodi:namedview
     inkscape:document-rotation="0"
     inkscape:snap-global="true"
     inkscape:snap-nodes="false"
     inkscape:bbox-nodes="true"
     inkscape:snap-bbox="true"
     showguides="true"
     inkscape:snap-midpoints="true"
     inkscape:snap-smooth-nodes="true"
     inkscape:snap-intersection-paths="true"
     inkscape:object-paths="true"
     inkscape:showpageshadow="false"
     inkscape:pagecheckerboard="true"
     inkscape:window-maximized="1"
     inkscape:window-y="31"
     inkscape:window-x="0"
     inkscape:window-height="705"
     inkscape:window-width="1366"
     units="pt"
     showgrid="false"
     inkscape:current-layer="layer1"
     inkscape:document-units="pt"
     inkscape:cy="51.463265"
     inkscape:cx="56.462554"
     inkscape:zoom="1.7002419"
     inkscape:pageshadow="2"
     inkscape:pageopacity="0.0"
     borderopacity="1.0"
     bordercolor="#666666"
     pagecolor="#ffffff"
     id="base">
    <inkscape:grid
       id="grid1378"
       type="xygrid" />
    <sodipodi:guide
       inkscape:locked="false"
       id="guide1380"
       orientation="78.000048,0"
       position="0.97013831,21.607643" />
    <sodipodi:guide
       inkscape:locked="false"
       id="guide1382"
       orientation="0,78.000005"
       position="0.97013831,0.97013129" />
    <sodipodi:guide
       inkscape:locked="false"
       id="guide1384"
       orientation="-78.000048,0"
       position="21.607639,0.97013129" />
    <sodipodi:guide
       inkscape:locked="false"
       id="guide1386"
       orientation="0,-78.000005"
       position="21.607639,21.607643" />
  </sodipodi:namedview>
  <metadata
     id="metadata828">
    <rdf:RDF>
      <cc:Work
         rdf:about="">
        <dc:format>image/svg+xml</dc:format>
        <dc:type
           rdf:resource="http://purl.org/dc/dcmitype/StillImage" />
      </cc:Work>
    </rdf:RDF>
  </metadata>
  <g
     transform="translate(0,-274.42223)"
     id="layer1"
     inkscape:groupmode="layer"
     inkscape:label="Icon">
    <g
       id="g1946"
       style="display:inline"
       transform="matrix(1.2580062,0,0,1.2580062,0.63760844,-115.63832)">
      <g
         id="g370717"
         transform="translate(0,-5.2914223)"
         style="display:inline">
        <g
           id="g370100">
          <path
             style="color:#000000;fill:#e2f0fa;fill-opacity:1;stroke-linecap:round;stroke-linejoin:round;-inkscape-stroke:none;paint-order:markers fill stroke"
             d="m 13.740234,326.86589 -10.5488277,0.004 a 0.26460996,0.26460996 0 0 0 -0.1855469,0.0742 c -0.5520759,0.53885 -0.888672,1.19108 -0.8886719,1.89649 10e-8,1.07258 0.7646479,2.00451 1.9160156,2.65234 1.1513678,0.64783 2.7129262,1.03711 4.4335938,1.03711 1.7206671,0 3.2822261,-0.38928 4.4335941,-1.03711 1.151367,-0.64783 1.916015,-1.57976 1.916015,-2.65234 0,-0.70665 -0.338766,-1.35902 -0.892578,-1.89844 a 0.26460996,0.26460996 0 0 0 -0.183594,-0.0762 z"
             id="path272306" />
          <path
             id="path285575"
             style="fill:#c8dae5;fill-opacity:1;stroke-width:3.77953;stroke-linecap:round;stroke-linejoin:round;paint-order:markers fill stroke"
             d="m 51.931641,176.87891 -39.869141,0.0156 a 1.0001006,1.0001006 0 0 0 -0.701172,0.2793 c -0.741759,0.72399 -1.3791754,1.5041 -1.8945311,2.32617 2.0898741,3.37879 4.9967521,5.99987 8.2421871,7.83008 l 0.908204,2.44922 c 0.991689,2.6663 3.547658,4.4375 6.384765,4.4375 h 13.996094 c 2.83711,0 5.395035,-1.7712 6.386719,-4.4375 a 2.933042,2.933042 0 0 0 0.0059,0 l 0.916016,-2.46485 c 3.235946,-1.82929 6.137437,-4.44373 8.224609,-7.81445 -0.518341,-0.82499 -1.160279,-1.60545 -1.90625,-2.33203 a 1.0001006,1.0001006 0 0 0 -0.693359,-0.28906 z"
             transform="matrix(0.26458334,0,0,0.26458334,0,280.06666)" />
        </g>
        <g
           id="g370075" />
        <g
           id="g370096">
          <path
             style="color:#000000;fill:#5b6571;fill-opacity:1;stroke-width:1;stroke-linecap:round;stroke-linejoin:round;-inkscape-stroke:none;paint-order:markers fill stroke"
             d="m 8.466792,320.35833 c -1.4625817,0 -2.7971366,0.30114 -3.817072,0.80859 -1.0199354,0.50746 -1.7481639,1.22969 -1.9020788,2.11524 a 0.24994589,0.26460996 0 0 0 -0.00184,0.0879 c 0.1440862,1.02298 0.8603577,1.89738 1.88363,2.51172 1.0232722,0.61433 2.3662418,0.98047 3.8373657,0.98047 1.4691051,0 2.8108141,-0.36545 3.8336761,-0.97852 1.022861,-0.61307 1.739812,-1.48606 1.88732,-2.50781 a 0.24994589,0.26460996 0 0 0 -0.0019,-0.0859 c -0.160382,-0.94351 -0.966445,-1.69996 -2.086567,-2.21094 a 0.24994589,0.26460996 0 0 0 -0.02398,-0.01 L 10.71936,320.614 a 0.24994589,0.26460996 0 0 0 -0.0203,-0.006 c -0.686752,-0.16113 -1.4408813,-0.25 -2.2323133,-0.25 z"
             id="path275409" />
          <path
             style="color:#000000;fill:#7d8e9e;stroke-linecap:round;stroke-linejoin:round;-inkscape-stroke:none;paint-order:markers fill stroke"
             d="m 2.6621094,324.06315 a 0.26460996,0.26460996 0 0 0 -0.2636719,0.26563 c 2.6e-6,2.43372 1.2858388,3.99622 2.9277344,4.80273 l 0.3261718,0.87891 c 0.1491333,0.40097 0.5350839,0.66797 0.9628907,0.66797 h 3.7031246 c 0.427808,0 0.813759,-0.267 0.962891,-0.66797 l 0.326172,-0.88086 c 1.640858,-0.80683 2.927731,-2.3681 2.927734,-4.80078 a 0.26460996,0.26460996 0 0 0 -0.263672,-0.26563 z"
             id="path272312" />
          <path
             style="color:#000000;fill:#fed883;stroke-width:0.999999;stroke-linecap:round;stroke-linejoin:round;-inkscape-stroke:none;paint-order:markers fill stroke"
             d="m 8.4667969,321.41666 c -1.5483899,0 -2.9612417,0.29311 -4.0410157,0.78704 -1.0797739,0.49393 -1.8507268,1.19691 -2.0136718,2.05885 a 0.26460996,0.25755651 0 0 0 -0.00195,0.0856 c 0.1525396,0.99571 0.910834,1.8468 1.9941406,2.44477 1.0833065,0.59795 2.5050668,0.95433 4.0625,0.95433 1.555296,0 2.975722,-0.35571 4.058594,-0.95244 1.082871,-0.59672 1.841885,-1.44644 1.998047,-2.44096 a 0.26460996,0.25755651 0 0 0 -0.002,-0.0836 c -0.169791,-0.91836 -1.023145,-1.65464 -2.208984,-2.152 a 0.26460996,0.25755651 0 0 0 -0.02539,-0.01 l -1.435546,-0.44295 a 0.26460996,0.25755651 0 0 0 -0.02149,-0.006 c -0.727043,-0.15683 -1.5254165,-0.24333 -2.363281,-0.24333 z"
             id="path272318" />
          <path
             id="path319345"
             style="color:#000000;fill:#cba158;fill-opacity:1;stroke-width:0.999998;stroke-linecap:round;stroke-linejoin:round;-inkscape-stroke:none;paint-order:markers fill stroke"
             d="m 8.4666667,321.41608 v 5.2e-4 c -1.5483899,0 -2.9613231,0.29311 -4.0410972,0.78704 -0.8162097,0.37336 -1.4554897,0.86612 -1.7895547,1.45676 0.2224823,-0.14482 0.4675542,-0.27782 0.7312213,-0.39843 1.0797741,-0.49393 2.4927074,-0.78703 4.0410972,-0.78703 v -5.3e-4 c 0.8378645,0 1.6361203,0.0866 2.3631633,0.24339 a 0.26460996,0.25755651 0 0 1 0.021704,0.006 l 1.4355714,0.44287 a 0.26460996,0.25755651 0 0 1 0.02532,0.0103 c 1.185839,0.49736 2.039377,1.23345 2.209168,2.15181 a 0.26460996,0.25755651 0 0 1 0.0021,0.0837 c -0.05893,0.3753 -0.203965,0.73008 -0.419613,1.05833 0.801869,-0.5643 1.348216,-1.29048 1.477946,-2.11667 a 0.26460996,0.25755651 0 0 0 -0.0021,-0.0837 c -0.169791,-0.91837 -1.023329,-1.65445 -2.209168,-2.15181 a 0.26460996,0.25755651 0 0 0 -0.02532,-0.0104 l -1.435571,-0.44286 a 0.26460996,0.25755651 0 0 0 -0.0217,-0.006 c -0.727042,-0.15673 -1.5252978,-0.24329 -2.3631623,-0.24329 z" />
          <path
             id="path30920"
             style="color:#000000;fill:#7d8e9e;stroke-width:1;stroke-linecap:round;stroke-linejoin:round;-inkscape-stroke:none;paint-order:markers fill stroke"
             d="M 11.034981,320.55147 C 10.253545,320.32221 9.3836056,320.196 8.4666627,320.196 h 4e-6 c -1.6515631,0 -3.1509944,0.41081 -4.2555542,1.09347 -1.10456,0.68265 -1.8303778,1.6587 -1.8303794,2.76779 -3.4e-6,1.1091 0.7258191,2.08668 1.8303794,2.76934 1.10456,0.68265 2.6039879,1.09399 4.2555542,1.09399 1.6515663,0 3.1515113,-0.41134 4.2560713,-1.09399 1.104561,-0.68266 1.829866,-1.66024 1.829862,-2.76934 -2e-6,-1.12591 -0.747093,-2.11432 -1.880505,-2.79879 l -0.269751,0.45682 c 1.026623,0.62159 1.621088,1.45246 1.62109,2.34197 2e-6,0.87774 -0.5781,1.69883 -1.580266,2.31821 -1.002165,0.61937 -2.413309,1.01595 -3.9765013,1.01595 -1.5631925,0 -2.9743361,-0.39658 -3.9765016,-1.01595 -1.0021655,-0.61938 -1.5802682,-1.44047 -1.5802653,-2.31821 1.1e-6,-0.87773 0.5781001,-1.69883 1.5802653,-2.3182 1.0021652,-0.61938 2.413312,-1.0139 3.9765016,-1.0139 0.8636581,0 1.6804883,0.11991 2.4081223,0.33228 z"
             sodipodi:nodetypes="ccccscscsccscscscscc" />
          <path
             style="color:#000000;fill:#dc1c4b;stroke-linecap:round;stroke-linejoin:round;-inkscape-stroke:none;paint-order:markers fill stroke"
             d="m 6.8789062,325.12175 c -0.4352417,0 -0.7929687,0.35773 -0.7929687,0.79297 0,0.43524 0.357727,0.79492 0.7929687,0.79492 0.4352418,0 0.7949219,-0.35968 0.7949219,-0.79492 0,-0.43524 -0.3596801,-0.79297 -0.7949219,-0.79297 z"
             id="path272328" />
          <path
             style="color:#000000;fill:#feefc8;stroke-linecap:round;stroke-linejoin:round;-inkscape-stroke:none;paint-order:markers fill stroke"
             d="m 6.6289062,323.04948 a 0.26460996,0.26460996 0 0 0 -0.3671875,0.0742 l -0.5292968,0.79299 a 0.26460996,0.26460996 0 0 0 0.074219,0.36719 l 0.7929688,0.52929 a 0.26460996,0.26460996 0 0 0 0.3671875,-0.0742 l 0.5292968,-0.79297 a 0.26460996,0.26460996 0 0 0 -0.074219,-0.36719 z"
             id="path272334" />
          <path
             style="color:#000000;fill:#9a605a;stroke-linecap:round;stroke-linejoin:round;-inkscape-stroke:none;paint-order:markers fill stroke"
             d="m 12.705078,317.62956 c -0.724276,-0.19407 -1.527973,0.22852 -1.646484,0.95508 l -0.675781,4.13672 a 0.26460996,0.26460996 0 0 0 0.193359,0.29883 l 1.277344,0.34179 a 0.26460996,0.26460996 0 0 0 0.316406,-0.16211 l 1.484375,-3.91992 c 0.260645,-0.68848 -0.224952,-1.45631 -0.949219,-1.65039 z"
             id="path272348" />
          <path
             id="path350571"
             style="color:#000000;fill:#66342d;fill-opacity:1;stroke-width:1;stroke-linecap:round;stroke-linejoin:round;-inkscape-stroke:none;paint-order:markers fill stroke"
             d="m 12.362553,317.58272 c -0.50458,-0.006 -0.98976,0.25829 -1.204061,0.69091 0.300486,-0.1582 0.668192,-0.20832 1.017509,-0.11472 0.724267,0.19408 1.209941,0.96155 0.949296,1.65003 l -1.338936,3.53518 0.06718,0.0181 a 0.26460996,0.26460996 0 0 0 0.31626,-0.16226 l 1.484664,-3.92018 c 0.260645,-0.68848 -0.225029,-1.45595 -0.949296,-1.65003 -0.113168,-0.0303 -0.228485,-0.0456 -0.342615,-0.047 z" />
          <path
             style="color:#000000;fill:#66342d;stroke-linecap:round;stroke-linejoin:round;-inkscape-stroke:none;paint-order:markers fill stroke"
             d="m 11.404297,322.48503 c -0.811235,-0.21737 -1.6471407,0.30679 -1.8710939,1.14258 -0.065004,0.24259 -0.081658,0.5039 -0.023437,0.75976 l 0.037109,0.16211 a 0.26460996,0.26460996 0 0 0 0.3496094,0.18946 l 0.1542965,-0.0566 c 0.130344,-0.0474 0.273953,-0.0474 0.404297,0 l 0.142578,0.0527 c 0.247039,0.0898 0.518586,0.0898 0.765625,0 l 0.142578,-0.0527 c 0.130342,-0.0474 0.273971,-0.0474 0.404297,0 l 0.15625,0.0566 a 0.26460996,0.26460996 0 0 0 0.345703,-0.17969 l 0.04297,-0.16406 a 0.26460996,0.26460996 0 0 0 0,-0.002 c 0.214505,-0.83199 -0.245235,-1.69235 -1.050781,-1.9082 z"
             id="path272358" />
          <path
             style="color:#000000;fill:#ec7523;stroke-linecap:round;stroke-linejoin:round;-inkscape-stroke:none;paint-order:markers fill stroke"
             d="m 9.7890625,325.12175 c -0.4352418,0 -0.7929688,0.35773 -0.7929687,0.79297 0,0.43524 0.3577269,0.79492 0.7929687,0.79492 0.4352415,0 0.7949215,-0.35968 0.7949215,-0.79492 0,-0.43524 -0.35968,-0.79297 -0.7949215,-0.79297 z"
             id="path272368" />
          <path
             id="path280655"
             style="color:#000000;fill:#5b6571;fill-opacity:1;stroke-width:1;stroke-linecap:round;stroke-linejoin:round;-inkscape-stroke:none;paint-order:markers fill stroke"
             d="m 5.3262899,329.13124 0.2134238,0.57568 c 0.4850074,0.10127 1.756613,0.34142 2.9269532,0.34106 1.1711631,-2.6e-4 2.4437651,-0.2422 2.9279871,-0.34365 l 0.212907,-0.57464 c -2.0583159,0.43767 -4.1482669,0.47377 -6.2812711,0.002 z"
             sodipodi:nodetypes="ccccccc" />
        </g>
      </g>
      <path
         id="ellipse2742"
         style="color:#000000;fill:#000000;stroke-width:3.77953;stroke-linecap:round;stroke-linejoin:round;-inkscape-stroke:none;paint-order:markers fill stroke"
         d="m 31.929688,116.28711 c -0.157293,0.0105 -0.30988,0.058 -0.445313,0.13867 -0.473094,0.28524 -0.625268,0.90006 -0.339844,1.37305 0.659205,1.09867 0.77512,1.90642 0.701172,2.6582 -0.07395,0.75179 -0.382995,1.48347 -0.753906,2.28711 -0.370912,0.80364 -0.810316,1.67016 -0.929688,2.72461 -0.119372,1.05445 0.171015,2.25796 1.041016,3.41797 0.331256,0.43811 0.953855,0.52705 1.394531,0.19922 0.443069,-0.33176 0.532364,-0.96032 0.199219,-1.40235 -0.629999,-0.84 -0.716566,-1.38451 -0.648437,-1.98632 0.06813,-0.60182 0.380677,-1.29582 0.759765,-2.11719 0.379088,-0.82137 0.816136,-1.77719 0.929688,-2.93164 0.113552,-1.15442 -0.139677,-2.47367 -0.980469,-3.875 -0.192816,-0.32406 -0.55153,-0.5121 -0.927734,-0.48633 z m 14.794921,5.50586 c -2.329317,-0.0287 -4.549805,1.47013 -4.927734,3.78711 l -1.166016,7.13867 C 37.962749,132.03934 35.050282,131.66992 32,131.66992 c -6.242128,0 -11.90927,1.55268 -16.083984,4.13281 -4.116868,3.33809 -6.8496101,7.0408 -6.8496101,11.58008 0.013567,3.81761 0.8538723,7.07994 2.2773441,9.8086 -2.0759875,2.03322 -3.3417976,4.49188 -3.3417972,7.15039 4e-7,4.05384 2.8905622,7.57494 7.2421882,10.02343 4.351626,2.4485 10.252548,3.91993 16.755859,3.91993 6.50331,0 12.406185,-1.47143 16.757812,-3.91993 4.351624,-2.44849 7.240235,-5.96959 7.240235,-10.02343 0,-2.65725 -1.267496,-5.11182 -3.341797,-7.14453 1.423236,-2.72603 2.263487,-6.00106 2.279297,-9.81446 0,-5.56287 -3.369608,-9.2386 -6.330074,-11.24804 l 3.001953,-7.92774 c 0.985115,-2.60213 -0.850504,-5.5028 -3.587891,-6.23633 -0.427722,-0.11461 -0.863567,-0.17242 -1.294922,-0.17773 z m -19.632812,1.94922 c -0.370912,0.80364 -0.810317,1.67602 -0.929688,2.73047 -0.119372,1.05445 0.171012,2.25018 1.041016,3.41015 0.328869,0.44067 0.951824,0.53316 1.394531,0.20703 0.443063,-0.33176 0.532357,-0.96031 0.199219,-1.40234 -0.629996,-0.83996 -0.718519,-1.39037 -0.650391,-1.99219 0.06813,-0.60181 0.382631,-1.28996 0.761719,-2.11133 0.233577,-0.50208 0.01467,-1.09838 -0.488281,-1.33007 -0.663377,-0.20373 -1.068785,0.0247 -1.328125,0.48828 z m 8.001953,0 c -0.370911,0.80364 -0.810316,1.67602 -0.929688,2.73047 -0.119372,1.05445 0.1632,2.25018 1.033204,3.41015 0.32935,0.44563 0.958272,0.53848 1.402343,0.20703 0.443063,-0.33176 0.532357,-0.96031 0.199219,-1.40234 -0.629996,-0.83996 -0.718519,-1.39037 -0.65039,-1.99219 0.06813,-0.60181 0.382631,-1.28996 0.761718,-2.11133 0.233577,-0.50208 0.01467,-1.09838 -0.488281,-1.33007 -0.612734,-0.24625 -1.067886,0.0427 -1.328125,0.48828 z m 11.632812,0.0566 c 0.26007,-0.002 0.520275,0.0293 0.775391,0.0977 1.632771,0.43752 2.711195,2.33176 2.230469,3.60157 l -5.109375,13.49218 c -0.458758,-0.29299 -0.967406,-0.52002 -1.519531,-0.66796 -0.555601,-0.14888 -1.114703,-0.20521 -1.66211,-0.17969 l 2.326172,-14.23828 c 0.184419,-1.13062 1.554609,-2.09475 2.958984,-2.10547 z m -0.388671,0.84961 c -0.03257,-9.2e-4 -0.06516,-2.6e-4 -0.09766,0.002 -0.26406,0.0154 -0.511265,0.13478 -0.6875,0.33203 -0.370048,0.41309 -0.333243,1.04842 0.08203,1.41602 0,0 0.681162,0.54882 0.759765,1.91992 0.02938,0.55348 0.503317,0.97748 1.056641,0.94531 0.550366,-0.0335 0.96975,-0.5062 0.9375,-1.05664 -0.120076,-2.0942 -1.425781,-3.30664 -1.425781,-3.30664 -0.17291,-0.15376 -0.393792,-0.2428 -0.625,-0.25195 z M 32,133.66992 c 2.951792,0 5.762029,0.36762 8.306641,1.03125 l -0.378907,2.32031 C 37.455506,136.54462 34.784956,136.2832 32,136.2832 c -6.213773,0 -11.846695,1.28095 -16.011719,3.41797 -1.535896,0.78803 -2.88728,1.70677 -3.984375,2.73438 0.991581,-1.84089 2.688177,-3.52534 4.966797,-4.9336 3.787711,-2.34096 9.121179,-3.83203 15.029297,-3.83203 z m 15.876953,4.38672 c 1.853001,1.28538 3.252386,2.76827 4.117188,4.37109 -1.24266,-1.16057 -2.816372,-2.18358 -4.621094,-3.04101 z M 32,138.2832 c 2.682921,0 5.246338,0.25756 7.603516,0.7168 l -0.271485,1.66602 c -1.560576,0.72805 -2.813653,2.15665 -3.300781,3.9746 -0.230125,0.85881 -0.271842,1.75074 -0.128906,2.6211 l -0.240235,0.0879 c -0.519741,0.18573 -0.79073,0.75743 -0.605468,1.27734 0.188872,0.52082 0.765175,0.78883 1.285156,0.59766 l 1.644531,-0.59766 c 0.492605,-0.17915 1.036696,-0.17915 1.529297,0 l 0.539063,0.19727 c 0.933728,0.3394 1.958853,0.3394 2.892578,0 l 0.539062,-0.19727 c 0.492605,-0.17915 1.036696,-0.17915 1.529297,0 l 1.644531,0.59766 c 0.517692,0.18602 1.088425,-0.081 1.277344,-0.59766 0.186022,-0.51769 -0.08102,-1.08842 -0.597656,-1.27734 l -0.205078,-0.0742 c 0.366567,-1.71671 -0.01416,-3.44461 -0.941407,-4.77148 l 0.46875,-1.23829 c 3.529645,1.70952 5.726395,3.9545 6.228516,6.28516 -0.487402,2.82755 -2.568296,5.43941 -5.861328,7.47461 -3.78771,2.34096 -9.121169,3.83984 -15.029297,3.83984 -5.908129,0 -11.241585,-1.49888 -15.029297,-3.83984 -3.293031,-2.0352 -5.373928,-4.64706 -5.861328,-7.47461 0.475593,-2.23145 2.491366,-4.37932 5.787109,-6.07031 3.797404,-1.94842 9.167033,-3.1973 15.103516,-3.1973 z m -2,3.00586 c -0.54924,0.002 -0.993956,0.44686 -0.996094,0.9961 -10e-6,1.645 1.351074,3.0039 2.996094,3.0039 1.64502,0 2.998057,-1.3589 2.998047,-3.0039 -0.0021,-0.54924 -0.446854,-0.99396 -0.996094,-0.9961 -0.55305,-0.003 -1.003711,0.44304 -1.005859,0.9961 3e-6,0.56413 -0.431967,1.0039 -0.996094,1.0039 -0.564127,0 -1.00391,-0.43977 -1.003906,-1.0039 C 30.993956,141.73592 30.54924,141.2912 30,141.28906 Z m 11.666016,0.84766 c 0.305676,-0.001 0.614083,0.0372 0.919922,0.11914 1.814714,0.48624 2.95453,2.34778 2.642578,4.35547 -0.800303,-0.19085 -1.641073,-0.14319 -2.421875,0.14062 l -0.544922,0.19141 c -0.492605,0.17915 -1.028884,0.17915 -1.521485,0 l -0.544922,-0.19141 c -0.758654,-0.27576 -1.581724,-0.3286 -2.363281,-0.15625 -0.03782,-0.47886 0.0063,-0.96727 0.132813,-1.43945 0.491906,-1.8358 2.050518,-3.01171 3.701172,-3.01953 z m -17.150391,0.15039 c -0.340932,-0.005 -0.66117,0.16309 -0.849609,0.44727 l -2,2.99804 c -0.305515,0.46055 -0.179557,1.08159 0.28125,1.38672 l 2.996093,2.00195 c 0.460932,0.30685 1.083461,0.18077 1.388672,-0.28125 l 2,-2.99609 c 0.30685,-0.46093 0.180768,-1.08346 -0.28125,-1.38867 l -2.996093,-2 c -0.159825,-0.1066 -0.346972,-0.16492 -0.539063,-0.16797 z m 0.265625,2.38867 1.328125,0.88672 -0.884766,1.33594 -1.335937,-0.89258 z m 7.71875,1.7461 c -0.08636,-3e-5 -0.172364,0.0111 -0.255859,0.0332 -0.258249,0.0669 -0.479044,0.23429 -0.613282,0.46484 l -0.49414,0.86524 c -0.276393,0.47689 -0.114784,1.0875 0.361328,1.36523 0.476888,0.2764 1.087509,0.11479 1.365234,-0.36133 l 0.501953,-0.87109 c 0.276416,-0.47937 0.110983,-1.09209 -0.36914,-1.36719 -0.151358,-0.0853 -0.322339,-0.12976 -0.496094,-0.1289 z m -12.501953,1.86523 c -0.549236,0.002 -0.99395,0.44685 -0.996094,0.99609 -0.0022,0.55229 0.443806,1.00176 0.996094,1.00391 h 1.003906 c 0.552288,-0.002 0.998257,-0.45162 0.996094,-1.00391 -0.0021,-0.54924 -0.446858,-0.99395 -0.996094,-0.99609 z m 22.388672,2.06636 -0.501953,0.86328 c -0.276393,0.47689 -0.114784,1.0875 0.361328,1.36523 0.478612,0.28173 1.095109,0.11949 1.373047,-0.36133 l 0.49414,-0.87109 c 0.276393,-0.47689 0.114784,-1.0875 -0.361328,-1.36523 -0.589907,-0.27867 -1.168761,0.004 -1.365234,0.36914 z m -19.384766,2.92973 c 0,1.645 1.351086,3.00586 2.996094,3.00586 1.645008,0 3.005859,-1.36086 3.005859,-3.00586 0,-1.645 -1.34025,-2.99609 -3.005859,-2.97544 -1.665609,0.0206 -2.996094,1.35614 -2.996094,2.97544 z m 11,0 c 0,1.645 1.351086,3.00586 2.996094,3.00586 1.645007,0 3.003906,-1.36086 3.003906,-3.00586 0,-1.645 -1.338297,-2.99609 -3.003906,-2.97544 -1.665609,0.0206 -2.996094,1.35614 -2.996094,2.97544 z m -3.248047,-1.85937 c -0.478947,0.27505 -0.64422,0.8863 -0.36914,1.36523 l 0.501953,0.86328 c 0.275052,0.47895 0.886302,0.64422 1.365234,0.36914 0.48082,-0.27794 0.643055,-0.89443 0.361328,-1.37304 l -0.49414,-0.86328 c -0.424199,-0.54637 -0.908096,-0.5825 -1.365235,-0.36133 z m -4.755859,0.86328 c 0.564129,0 1.005859,0.43196 1.005859,0.99609 0,0.56414 -0.44173,1.00391 -1.005859,1.00391 -0.564129,0 -0.996094,-0.43977 -0.996094,-1.00391 0,-0.56413 0.431965,-0.99609 0.996094,-0.99609 z m 11,0 c 0.564128,0 1.003902,0.43196 1.003906,0.99609 0,0.56414 -0.439778,1.00391 -1.003906,1.00391 -0.564129,0 -0.996094,-0.43977 -0.996094,-1.00391 0,-0.56413 0.431965,-0.99609 0.996094,-0.99609 z m -25.087891,1.12305 c 1.090631,1.24077 2.448549,2.35783 4.00586,3.32031 4.174716,2.58009 9.841844,4.13476 16.083984,4.13476 6.24214,0 11.911223,-1.55467 16.085938,-4.13476 1.55645,-0.96195 2.913582,-2.07841 4.003906,-3.31836 -1.896063,6.31708 -6.767904,10.00217 -12.41211,11.67578 -0.527035,0.15815 -0.827279,0.71238 -0.671875,1.24023 0.158149,0.52704 0.71238,0.82729 1.240235,0.67188 0.34778,-0.10312 0.694099,-0.21505 1.037109,-0.33398 l -0.519531,1.39648 c -0.274658,0.73848 -0.977699,1.22461 -1.765625,1.22461 H 25.001953 c -0.787919,0 -1.489003,-0.48609 -1.763672,-1.22461 l -0.519531,-1.39648 c 0.342906,0.11889 0.689437,0.23089 1.037109,0.33398 0.527238,0.15415 1.080115,-0.14583 1.238282,-0.67188 0.155557,-0.52727 -0.143673,-1.08124 -0.669922,-1.24023 -5.644788,-1.67378 -10.518417,-5.35946 -12.414063,-11.67773 z m 0.490235,5.55859 c 1.989625,2.95199 4.72365,5.15918 7.798828,6.6543 l 1.164062,3.14062 c 0.563654,1.51548 2.021765,2.52539 3.638672,2.52539 h 13.996094 c 1.616912,0 3.076976,-1.00991 3.640625,-2.52539 l 1.164062,-3.14062 c 3.073724,-1.49445 5.805563,-3.70045 7.794922,-6.65039 1.573254,1.66389 2.400391,3.47391 2.400391,5.36914 0,3.09335 -2.249927,6.04791 -6.222656,8.2832 -3.97273,2.23533 -9.576164,3.66016 -15.775391,3.66016 -6.199228,0 -11.802662,-1.42483 -15.775391,-3.66016 -3.972728,-2.23529 -6.222655,-5.18985 -6.222656,-8.2832 0,-1.89609 0.824338,-3.70814 2.398438,-5.37305 z"
         transform="matrix(0.26458334,0,0,0.26458334,0,280.06666)"
         sodipodi:nodetypes="cccssscccsssccsccscccsssssccccssscscccsccccscccscccccccsccccccccccccccsccssccsccccsccscccccccccccccccccsssccsccscccscccccccccccccccccccccccccccccccccccccsccscccccccccssscsssscscccccccssssssssssccssccccccsscccccccccsscccsssssc" />
    </g>
  </g>
</svg>
