<svg width="36" height="36" viewBox="0 0 36 36" fill="none" xmlns="http://www.w3.org/2000/svg">
<path d="M24.251 13.3848C24.251 17.0091 21.3128 19.9473 17.6885 19.9473C14.0641 19.9473 11.126 17.0091 11.126 13.3848C11.126 9.76041 14.0641 6.82228 17.6885 6.82228C21.3128 6.82228 24.251 9.76041 24.251 13.3848Z" fill="#000000"/>
<path fill-rule="evenodd" clip-rule="evenodd" d="M0.188477 17.7598C0.188477 8.0948 8.02349 0.259781 17.6885 0.259781C27.3535 0.259781 35.1885 8.0948 35.1885 17.7598C35.1885 27.4248 27.3535 35.2598 17.6885 35.2598C8.02349 35.2598 0.188477 27.4248 0.188477 17.7598ZM17.6885 2.44728C9.23162 2.44728 2.37598 9.30292 2.37598 17.7598C2.37598 21.3767 3.62998 24.7006 5.72692 27.3207C7.28239 24.815 10.6986 22.1348 17.6885 22.1348C24.6784 22.1348 28.0946 24.815 29.65 27.3207C31.747 24.7006 33.001 21.3767 33.001 17.7598C33.001 9.30292 26.1453 2.44728 17.6885 2.44728Z" fill="#000000"/>
</svg>
